<?xml version="1.0"?>
<svg id="Layer_1" data-name="Layer 1" xmlns="http://www.w3.org/2000/svg" viewBox="0 0 245.76 86.62">
  <defs>
    
  </defs>
  <path class="cls-1" d="M0,79.9V-26.17h245.76v106.07c-.29-2.92-.33-5.86-.43-9.21l-4.82-.08-.08-5.65h-7.38s-.09,6.9-.09,6.9l-2.26-.18-.03-16.65c-.89-.44-1.37-1.04-1.99-1.84-2.74-.16-3.24-.73-4.56,1.48-.46-.32-1.08-.86-1.44-.83-.43.03-1.14.43-1.84.81l-.05,10.64-3.3.13v4.07c0,.26-.39.75-.61.83s-.58-.53-.58-.76c-.02-3.39.05-7.2-.39-10.47l-.36-2.71-.16-9.25-5.74.03-.13,9.18-.36,4.63-.33,3.96-.09,1.28c-.02.34-1.09.17-1.77.12v-19.9s-8.6-6.2-8.6-6.2l-.1,6.64-.84.9-.05,7.23-5.27.13c.4,1,.87,1.87.71,2.3-.19.53-1.67.45-2.1.05l-.02-19.76-3.55-.12c-.43-.97-.09-1.98.73-3.17l-11.06-.02c.67,1.17,1.06,2.16.72,3.15l-3.8.12-.02,19.8c-2.6.69.41,4.63-2.47,3.46v-21.74c-.01-.45-.63-.97-.85-1.11l-.08-6.82-4.7,1.02-.72-6.54-.55,6.88-2.65.52-.03,34.9-5.89.05-.03-9.74-5.32-.11-.54-38.86c-.38-.39-1.13-.77-1.64-.98-.13-.22-.34-.92-.48-1.35l-1.74-.1c-.46-1.42-1.09-2.86-1.46-4.29-.81-3.13.1-6.29-.43-9.54l-.36,9.19c-.06,1.51-.98,3.08-1.45,4.59l-1.92.19c.13,1.16-.57,1.67-1.99,1.84l-.59,40.83-1.82.18v-17.97s-.67-1.22-.67-1.22l-.09-5.49c-2.16-1.36.46-1.53-1.91-4.11-1.13-1.22-1.28-3.06-1.31-4.74s-.64-3.24-.75-4.92l-.31-4.88-.33,4.88c-.11,1.68-.75,3.18-.76,4.93-.01,1.66-.2,3.53-1.31,4.74-2.42,2.65.27,2.72-1.92,4.09l-.07,5.51-.7,1.02v25.13c-1.16.45-1.93.58-3.27.72l-.06,2.86c0,.45-.17.85-.57,1.19l-.26-11.23-4.19-.09-.03-10.07-1.18-.42-.89-2.16c-.79-1.91-1.35-3.47-3.43-3.55-2.23-.08-2.85,1.62-3.69,3.54l-.95,2.17-1.19.43-.03,8.88c-1.39.04-2.45.03-3.71-.17l-.05-26.27c0,2.19-2.01-5.73-1.62-3.6-1.14-6.19-2.71-8.59-3.11-14.66-.52,6.4-1.98,8.23-3.16,14.7-.07.38-.74,1.1-.65,1.45.21.8-.02,1.5-.99,1.76l-.02,35.26c-.26.34-1.4.67-1.63.37s-.3-1.02-.33-1.58l-.06-1.16c-.01-.28-.8-.25-1.29-.41l-.02-27.46c-1.37.27-2.09-.01-2.46-1.04l-4.82-.04-.67,1.13c-.99.28-1.77.53-2.66.91v31.14c0,.37-1.32.49-1.42.14l-.11-8.87c-1.66-.97-.45-2.6-.94-2.71l-1.25-.28-.74-2.45c.06-2.09.06-3.92-.48-5.98l-6.27-.03c-1.14,4.12.32,4.62-1.26,8.52l-1.08.12c-.25.03-.19.78-.22,1.11l-.07.96c-.02.21-.46.11-.81.09v9.71s-3.8.07-3.8.07l-.12-3-1.62-.43.11-7.32-4.09.07c0,2.8.05,4.92-.32,7.52-.34-.83-.49-1.63-.49-2.44l-.05-13.47-.85-2.38c-.56-1.58-1.84-2.94-2.92-4.49-1.19,1.46-2.33,2.87-3.28,4.51-.28.48-.02,1.71-.73,2.19l-.08,17.25-3.32.03-.13-10.24-4.89-.07c.37-1.38-.38-1.86-.76-2.63-2.94-6.09-3.28-.93-3.28-8.8-.11-.79-.47-.83-.56-.01-.05,7.74-.42,2.92-3.26,8.83-.35.73-1.15.98-.72,2.58l-4.98.06c-.36,0-.36-1.24-.49-1.63l-2.58-7.37c-3.51,8.83-2.38,8.04-2.6,17.17l-1.08.63-.05,2.66-5.44.04-.04,6.25c-.5.29-1.63.28-2.16-.01v-10.34s-5.75-.04-5.75-.04l-.06,7.86H.58s.05,5.79.05,5.79C.63,79.03.21,79.75,0,79.9Z"></path>
  <path d="M245.76,79.9v6.72H0v-6.72c.21-.15.63-.86.63-1.21l-.05-5.79h3.23s.06-7.86.06-7.86l5.73.04v10.34c.54.29,1.68.3,2.18.01l.04-6.25,5.44-.04.05-2.66,1.08-.63c.22-9.13-.9-8.34,2.6-17.17l2.58,7.37c.14.39.13,1.63.49,1.63l4.98-.06c-.43-1.59.37-1.85.72-2.58,2.84-5.91,3.22-1.09,3.26-8.83.09-.81.45-.78.56.01,0,7.86.35,2.7,3.28,8.8.37.77,1.12,1.25.76,2.63l4.89.07.13,10.24,3.32-.03.08-17.25c.71-.48.45-1.71.73-2.19.95-1.64,2.09-3.05,3.28-4.51,1.08,1.55,2.36,2.91,2.92,4.49l.85,2.38.05,13.47c0,.81.15,1.61.49,2.44.37-2.6.33-4.71.32-7.52l4.09-.07-.11,7.32,1.62.43.12,3,3.79-.07v-9.71c.37.02.81.12.82-.09l.07-.96c.03-.33-.04-1.08.22-1.11l1.08-.12c1.58-3.9.13-4.41,1.26-8.52l6.27.03c.54,2.06.54,3.88.48,5.98l.74,2.45,1.25.28c.5.11-.72,1.74.94,2.71l.11,8.87c.1.35,1.42.24,1.42-.14v-31.14c.89-.38,1.67-.63,2.66-.91l.67-1.13,4.82.04c.38,1.03,1.09,1.31,2.46,1.04l.02,27.46c.49.16,1.28.13,1.29.41l.06,1.16c.03.55.1,1.27.33,1.58s1.37-.03,1.63-.37l.02-35.26c.98-.26,1.2-.96.99-1.76-.09-.34.58-1.07.65-1.45,1.18-6.47,2.64-8.3,3.16-14.7.4,6.07,1.97,8.47,3.11,14.66-.39-2.13,1.62,5.79,1.62,3.6l.05,26.27c1.26.2,2.32.2,3.71.17l.03-8.88,1.19-.43.95-2.17c.84-1.92,1.46-3.62,3.69-3.54,2.08.08,2.64,1.64,3.43,3.55l.89,2.16,1.18.42.03,10.07,4.19.09.26,11.23c.4-.34.56-.74.57-1.19l.06-2.86c1.34-.14,2.1-.27,3.26-.72v-25.13s.71-1.02.71-1.02l.07-5.51c2.18-1.37-.5-1.45,1.92-4.09,1.1-1.21,1.29-3.08,1.31-4.74.01-1.76.65-3.25.76-4.93l.33-4.88.31,4.88c.11,1.68.72,3.18.75,4.92s.18,3.52,1.31,4.74c2.37,2.57-.25,2.75,1.91,4.11l.09,5.49.67,1.22v17.97s1.83-.18,1.83-.18l.59-40.83c1.42-.17,2.12-.68,1.99-1.84l1.92-.19c.46-1.5,1.39-3.08,1.45-4.59l.36-9.19c.53,3.25-.39,6.41.43,9.54.37,1.43,1,2.87,1.46,4.29l1.74.1c.14.43.34,1.13.48,1.35.51.21,1.26.59,1.64.98l.54,38.86,5.32.11.03,9.74,5.89-.05.03-34.9,2.65-.52.55-6.88.72,6.54,4.7-1.02.08,6.82c.23.14.84.65.84,1.11v21.74c2.89,1.18-.12-2.77,2.48-3.46l.02-19.8,3.8-.12c.34-.99-.06-1.98-.72-3.15l11.06.02c-.82,1.18-1.16,2.19-.73,3.17l3.55.12.02,19.76c.43.4,1.9.48,2.1-.05.16-.43-.31-1.31-.71-2.3l5.27-.13.05-7.23.84-.9.1-6.64,8.59,6.2v19.9c.69.04,1.75.22,1.77-.12l.09-1.28.33-3.96.36-4.63.13-9.18,5.74-.03.16,9.25.36,2.71c.43,3.27.37,7.08.39,10.47,0,.24.36.84.58.76s.61-.56.61-.83v-4.07s3.3-.13,3.3-.13l.05-10.64c.7-.38,1.41-.78,1.84-.81.37-.03.99.52,1.44.83,1.32-2.21,1.82-1.64,4.56-1.48.62.8,1.1,1.4,1.99,1.84l.03,16.65,2.26.18.09-6.88h7.38s.08,5.63.08,5.63l4.82.08c.1,3.34.15,6.28.43,9.21Z"></path>
</svg>